<?xml version="1.0" encoding="UTF-8"?>
<!DOCTYPE svg PUBLIC "-//W3C//DTD SVG 1.1//EN" "http://www.w3.org/Graphics/SVG/1.1/DTD/svg11.dtd">
<!-- Creator: CorelDRAW 2019 (64-Bit) -->
<svg xmlns="http://www.w3.org/2000/svg" xml:space="preserve" width="279.4mm" height="118.533mm" version="1.1" style="shape-rendering:geometricPrecision; text-rendering:geometricPrecision; image-rendering:optimizeQuality; fill-rule:evenodd; clip-rule:evenodd"
viewBox="0 0 27940 11853.32"
 xmlns:xlink="http://www.w3.org/1999/xlink"
 xmlns:xodm="http://www.corel.com/coreldraw/odm/2003">
 <defs>
  <style type="text/css">
   <![CDATA[
    .str0 {stroke:black;stroke-width:35.28;stroke-miterlimit:22.9256}
    .str1 {stroke:black;stroke-width:84.67;stroke-miterlimit:22.9256}
    .str2 {stroke:black;stroke-width:7.62;stroke-miterlimit:22.9256}
    .fil2 {fill:none}
    .fil1 {fill:black;fill-rule:nonzero}
    .fil0 {fill:black;fill-rule:nonzero}
   ]]>
  </style>
 </defs>
 <g id="Capa_x0020_1">
  <metadata id="CorelCorpID_0Corel-Layer"/>
  <path class="fil0" d="M6422.24 3687.05c199.77,83.43 395.91,178.56 601.77,242.37 53.9,16.71 147.25,-52.66 206.37,-101.86 164.93,-137.27 344.49,-166.72 520.54,-52.57 215.83,139.93 435.44,284.87 615.13,465.69 110.69,111.38 154.14,291.97 219.96,444.85 64.78,150.46 -51.51,239.34 -145.16,304.51 -386.8,269.19 -816.1,282.17 -1262.01,185.67 -182.83,-39.57 -371.67,-50.63 -555.67,-85.72 -90.36,-17.23 -175.44,-53.43 -261.52,-93.92 -168.56,-111.56 -325.13,-241.13 -487.78,-361.75 -290.44,-241.58 -360.4,-564.69 -418.2,-899.55 -10.23,-59.27 52.67,-160.09 110.32,-196.2 124.4,-77.94 262.96,-140.57 403.64,-183.64 246.65,-75.52 502.53,-121.64 747.35,-202 72.86,-23.91 158.54,-112.59 175.44,-186.07 97.11,-422.29 338.92,-688.73 768.47,-774.19 148.18,-29.49 194.55,-115.2 183.8,-264.1 -21.14,-292.69 -27.52,-586.51 -36.33,-879.97 -1.89,-62.92 18.23,-172.62 26.96,-257.13 122.01,38.22 235.19,82.32 290.12,101.6 50.6,180.54 87.38,337.35 138.32,489.43 378.58,1130.32 812.81,2245.27 1126.43,3393.23 350.93,1284.48 593.42,2598.59 882.91,3899.85 22.72,102.15 44,204.63 69.72,324.56 -316.79,0 -717.15,46.33 -734.79,-9.53 -39.51,-125.12 -179.42,-897.31 -231.36,-1129.1 -148.92,-664.7 -303.11,-1328.81 -427.06,-1998.36 -127.98,-691.29 -213.1,-1390.43 -335,-2082.96 -116.9,-664.15 -256.92,-1324.24 -414.46,-1985.29 0,104.41 -8.26,209.64 1.86,313.06 16.82,171.92 -52.69,278.06 -213.84,334.45 -65.44,22.91 -125.92,59.98 -137.52,102.45 -13.95,148.93 -29.25,297.76 -41.05,446.86 -3.62,45.69 -2.93,93.05 4.86,138.08 30.19,174.53 -44.84,350.91 -198.7,407.37 -158.72,58.24 -268.35,-25.32 -345.93,-161.34 -20.05,-35.17 -43.83,-68.23 -38.98,-60.75 -287.7,119.77 -537.2,223.63 -786.7,327.49 -7.3,14.83 -14.61,29.65 -21.91,44.48zm1140.48 1189.9l0 0c63.61,11.37 128.71,11.73 192.07,-0.92 105.91,-21.14 204.98,-38.3 297.42,-73.06 180.45,-67.86 204.34,-169.08 64.81,-301.57 -135.33,-128.52 -293.37,-232.92 -439.42,-350.4 -105.8,-85.1 -199.96,-77.14 -290.12,23.01 -96.83,107.56 -212.37,148.48 -361.71,132.77 -310.68,-32.68 -561.41,-193.44 -817.71,-348.63 -77.03,-46.64 -151.01,-139.85 -255.54,-18.9 -96.28,111.4 -55.05,212.99 23.35,278.6 199.31,166.8 395.19,369.32 629.87,454.68 305.36,111.08 637.91,147.39 956.98,204.42z"/>
  <path class="fil0 str0" d="M12788.61 4884.78c29.15,83.7 146,87.74 181.02,6.33 102.14,-237.48 196.57,-459.04 296.93,-677.87 432.73,-943.52 874.32,-1883.01 1302.02,-2828.78 197.45,-436.6 704.34,-448.34 1025.72,-255.11 48.38,29.09 60.68,94.06 27.48,139.72 -79.3,109.08 -159.38,218.47 -237.38,329.33 -764.5,1086.4 -1439.84,2223.42 -1992.51,3433.98 -247.51,542.16 -330.91,1110.23 -356.15,1693.07 -27.41,632.99 -14.81,1290.71 -29.28,1924.15 -2.88,126.17 -28.12,269.99 -164.63,282.22 -206.48,18.49 -418.06,13.38 -656.59,-5.8 -50.41,-4.05 -89.59,-45.87 -89.84,-96.44 -0.85,-168.97 -3.4,-322.8 1.01,-476.44 21.18,-737.63 54.68,-1475.03 65.55,-2212.78 9.96,-675.74 -246.71,-1293.38 -487.48,-1904.81 -286.79,-728.28 -627.29,-1435.22 -929.12,-2157.84 -161.76,-387.28 -432.35,-554.77 -844.04,-508.86 -84.29,9.4 -169.73,10.04 -253.42,22.73 -108.33,16.42 -190.23,13.35 -211.19,-126.92 -19,-127.18 12.47,-194.3 145.76,-220.43 358.58,-70.29 713.64,-159.85 1073.55,-221.75 386.47,-66.48 613.18,51.86 777.7,434.49 332.57,773.48 651.23,1553.16 962.14,2335.64 139.35,350.73 259.38,709.14 392.75,1092.17z"/>
  <path class="fil0 str0" d="M2648.31 9075.26c21.95,-589.47 48.41,-1134.53 61.42,-1679.91 43.67,-1830.8 79.9,-3661.78 127.11,-5492.48 5.04,-195.5 -59.79,-251.83 -245.61,-244.83 -309.24,11.63 -619.3,-0.66 -928.9,4.3 -526.14,8.43 -809.27,244.45 -896.47,760.61 -32.74,193.8 -37.47,393.15 -43.61,590.33 -3.45,110.62 -42,160.6 -153.62,141.98 -93.47,-15.59 -231.14,39.56 -228.42,-135.61 6.22,-401.58 -6.94,-804.92 27.08,-1204.2 34.47,-404.65 253.59,-634.51 662.57,-652.43 557.87,-24.44 1118.38,19.84 1677.62,15.93 1086.26,-7.6 2172.43,-28.11 3258.62,-43.99 39.25,-0.57 78.72,-6.86 117.53,-13.66 244.11,-42.76 344.78,60.46 301.37,309.99 -36.01,207.05 -214.47,373.29 -487.22,390.88 -314.25,20.28 -631.66,11.58 -946.65,-4.73 -335.03,-17.34 -669.17,-55.13 -1003,-90.53 -140.15,-14.86 -199.31,21.09 -202.49,177.05 -22.25,1093.33 -50.92,2186.55 -82.35,3279.66 -34.45,1198.39 -75.57,2396.58 -109.27,3594.99 -3.57,126.93 -39.13,190.99 -174.71,203.5 -233.64,21.56 -465.86,58.46 -731,93.15z"/>
  <path class="fil0 str0" d="M6723.18 5445.66l672.05 0c13.45,0 23.57,12.13 21.04,25.34 -38.57,200.84 -75.66,407.82 -119.18,613.44 -149.38,705.8 -295.15,1431.56 -451.01,2135.94 -14.82,66.95 -198.3,405.18 -291.04,560.04 -146.75,267.59 -224.34,261.63 -580.88,219.6 -12.53,-1.48 -21.35,-13.46 -18.73,-25.81 251.49,-1182.6 502.22,-2361.59 746.78,-3511.61 2.11,-9.91 10.85,-16.94 20.97,-16.94z"/>
  <g id="_1281907408">
   <path class="fil0 str0" d="M15970.79 3072.68c-346.53,19.97 -550.11,228.57 -716.04,499.9 49.64,-233.13 185.5,-391.7 388.63,-495.48 41.52,-21.2 88.11,-38.33 132.51,-46.39 246.08,-44.67 345.87,-180.13 410.02,-405.94 -357.27,7.87 -689.43,171.65 -915.79,483.27 -11.97,-10.94 3.67,-61.73 15.14,-89.11 28.72,-46.8 50.74,-99.78 87.29,-139.35 193.59,-209.63 447.89,-297.06 720.46,-335.15 124.23,-17.36 232.13,-46.17 307.88,-144.57 26.73,-34.72 75.49,-85.73 112.11,-109.77 276.93,-181.8 352.88,-458.69 372.51,-782.12 21.26,-350.3 84.96,-698.03 138.02,-1108.27 299.99,378.17 568.73,716.96 856.56,1079.8 159.92,-373.42 306.26,-715.14 474.07,-1106.98 157.07,367.4 288.33,673.34 421.02,985.91 25.23,59.43 47.78,119.93 70.22,180.47 64.07,172.88 155.07,308.84 349.22,380.15 197.09,72.4 294.15,232.06 277.03,459.73 -22.46,298.64 -21.56,598.96 -35.92,898.31 -13.91,289.92 -30.73,299.66 -326.59,233.21 -18.71,-185.84 -21.42,-374.68 -59.18,-556.22 -95.94,-461.22 -411.12,-749.29 -877.09,-822.17 -556.95,-87.11 -1046.4,29.44 -1390.9,507.89 -345,479.14 -250.33,1222.68 179.56,1631.73 399.13,379.77 906.69,581.84 1366.63,862.51 274.21,167.34 548.81,345.36 786.03,559.75 565.81,511.36 576.89,1309.26 332.42,1944.64 -239.47,622.36 -723.93,986.09 -1335.69,1189.98 -686.23,228.72 -1222.98,212.72 -1903,-37.7 -293.01,-107.9 208.85,-438.04 580.63,-331.54 561.84,160.96 1111.56,146.06 1596.71,-218.02 593.89,-445.66 656.79,-1357.35 108.39,-1858.59 -281.91,-257.67 -629.34,-445.2 -953.5,-654.61 -300.52,-194.13 -621.91,-357.82 -912.2,-565.53 -663.31,-474.63 -858.16,-1130.43 -685.73,-1911.44 10.11,-45.78 18.81,-90.72 29.78,-136.32 1.28,-5.33 2.84,-11.82 -1.21,-41.98z"/>
   <path class="fil0 str0" d="M18874.51 3165.54c-63.79,-32.9 -104.15,-50.01 -140.67,-73.17 -176.48,-111.91 -354.26,-222.07 -526.2,-340.65 -46.13,-31.81 -73.38,-91.01 -109.3,-137.63 53.75,-26.2 106.5,-72.41 161.43,-75.17 251.72,-12.65 554.44,221.83 613.36,467.56 9.83,41.03 1.38,86.45 1.38,159.06z"/>
   <path class="fil0 str0" d="M16322.57 8820.11c-168.29,-51.11 -219.45,-53.3 -351.09,-169.97 -135.91,-120.52 -335.92,-347.81 -377.89,-526.62 -14.74,-62.43 -24.66,-126.17 -30.66,-189.72 -1.48,-15.24 -2.66,-30.53 -3.68,-45.71 -6.64,-101.45 -4.95,-203 -0.51,-304.58 3.72,-85.36 9.38,-170.69 13.68,-256.08 3.73,-73.28 6.4,-146.6 5.94,-219.94 -0.07,-9.91 -0.34,-20.14 -1.01,-30.46 -3.34,-48.75 -16.02,-98.5 -57.07,-121.52 -20.57,-11.58 -44.1,-13.46 -67.56,-9.61 -6.3,0.99 -12.53,2.41 -18.77,4.2 -13.68,3.96 -26.99,9.49 -39.33,15.88 -52.29,27.16 -95.29,67.41 -137.23,109.4 -31.33,31.36 -62.04,63.66 -95.58,92.28 -78.46,66.84 -193.91,113.35 -282.95,61.47 -111.01,-64.63 -102.51,-227.33 -63.56,-349.67 44.41,-139.65 108.88,-278.81 196.64,-390.48 60.4,-76.93 131.87,-140.79 215.46,-182.9 104.92,-52.81 228.86,-71.26 374.04,-37.91 60.04,13.79 112.23,37.86 157.59,69.95 73.5,51.7 129.33,124.09 172.26,206.86 83.31,160.86 117.94,361.05 138.02,525.54 2,16.04 3.77,32.12 5.47,48.14 9.34,88.3 15.1,177.02 20.42,265.74 8.28,137.09 15.59,274.14 33.82,409.74 6.89,50.64 15.21,101.03 25.66,151.18 4.25,20.31 77.93,186.32 123.79,363.26 64.79,249.96 101.26,528.86 44.1,511.53z"/>
  </g>
  <path class="fil0" d="M16788.55 8459.17c0,0 -210.22,-0.66 -562.99,-309.34 -298.31,-261.02 -138.18,299.86 -138.18,299.86 0,0 52.92,170.51 94.08,199.91 41.16,29.39 246.94,105.83 270.46,105.83 23.52,0 241.07,-141.11 241.07,-141.11l95.56 -155.15z"/>
  <g id="_1281904496">
   <path class="fil1" d="M12043.18 10817.06l-869.04 0 -231.24 547.12c-11.09,25.2 -28.71,42.58 -52.9,52.14 -24.18,9.56 -49.36,8.8 -75.56,-2.28 -25.21,-11.07 -41.57,-28.71 -49.11,-52.9 -7.57,-24.16 -5.83,-48.35 5.28,-72.53l754.17 -1744.12c17.12,-38.27 46.34,-57.43 87.66,-57.43 19.12,0 36.28,5.05 51.38,15.11 15.11,10.09 26.69,24.19 34.77,42.32l749.63 1744.12c11.08,25.2 12.85,49.64 5.29,73.29 -7.56,23.69 -23.43,41.07 -47.61,52.14 -24.17,11.08 -48.87,11.84 -74.05,2.28 -25.21,-9.56 -43.34,-26.46 -54.42,-50.63l-234.25 -548.63zm-788.93 -190.43l0 0 708.83 0 -355.17 -835.78 -353.66 835.78z"/>
   <path class="fil1" d="M13057.33 10712.78l-3.03 6.04c0,1.02 0.24,1.52 0.76,1.52 0.5,0 0.75,0.52 0.75,1.5 0,1.01 0.5,1.51 1.52,1.51 0,68.54 12.83,134.02 38.53,196.48 25.69,62.49 61.21,117.65 106.56,165.5 45.34,47.87 99,86.4 160.96,115.62 61.96,29.23 129.22,43.82 201.76,43.82 66.51,1.02 129.46,-8.55 188.93,-28.72 59.42,-20.13 114.86,-53.38 166.24,-99.73 10.06,-8.06 20.64,-15.63 31.75,-22.69 11.07,-7.03 22.89,-12.07 35.5,-15.1 12.59,-3.02 25.94,-3.02 40.06,0 14.1,3.03 28.72,11.09 43.83,24.18 20.13,18.14 30.23,41.07 30.23,68.76 0,27.74 -11.6,53.16 -34.76,76.33 -60.47,60.46 -133.52,107.3 -219.15,140.56 -85.66,33.25 -174.34,49.87 -266.01,49.87 -98.75,0 -191.7,-18.36 -278.85,-55.16 -87.16,-36.77 -163.22,-87.14 -228.2,-151.13 -64.99,-63.98 -116.37,-139.29 -154.17,-225.95 -37.77,-86.64 -56.67,-179.34 -56.67,-278.11l3.02 -9.06c-2.04,-2.01 -3.02,-4.01 -3.02,-6.04 0,-98.74 18.9,-191.69 56.67,-278.85 37.8,-87.14 89.18,-163.23 154.17,-228.22 64.98,-64.99 141.04,-116.37 228.2,-154.15 87.15,-37.79 180.1,-56.69 278.85,-56.69 91.67,0 180.35,16.64 266.01,49.89 85.63,33.24 158.68,80.09 219.15,140.56 23.16,23.18 34.76,48.61 34.76,76.32 0,27.72 -10.58,51.14 -31.75,70.26 -15.11,13.11 -29.47,21.17 -43.06,24.19 -13.61,3.03 -26.72,3.03 -39.31,0 -12.61,-3.02 -24.43,-8.05 -35.5,-15.11 -11.11,-7.04 -21.69,-14.59 -31.75,-22.67 -51.38,-45.33 -106.82,-78.6 -166.24,-99.75 -59.47,-21.15 -122.42,-31.21 -188.93,-30.23 -71.56,1.02 -138.05,15.86 -199.51,44.6 -61.46,28.71 -115.12,67.25 -160.95,115.61 -45.86,48.36 -81.88,104.05 -108.06,167.01 -26.22,62.97 -39.29,128.72 -39.29,197.23z"/>
   <path class="fil1" d="M14772.73 10712.78l-3.03 6.04c0,1.02 0.24,1.52 0.76,1.52 0.5,0 0.75,0.52 0.75,1.5 0,1.01 0.5,1.51 1.52,1.51 0,68.54 12.83,134.02 38.53,196.48 25.69,62.49 61.21,117.65 106.56,165.5 45.34,47.87 98.99,86.4 160.95,115.62 61.96,29.23 129.23,43.82 201.77,43.82 66.5,1.02 129.46,-8.55 188.93,-28.72 59.42,-20.13 114.86,-53.38 166.24,-99.73 10.06,-8.06 20.64,-15.63 31.75,-22.69 11.07,-7.03 22.89,-12.07 35.5,-15.1 12.59,-3.02 25.94,-3.02 40.06,0 14.09,3.03 28.72,11.09 43.83,24.18 20.13,18.14 30.23,41.07 30.23,68.76 0,27.74 -11.6,53.16 -34.76,76.33 -60.47,60.46 -133.52,107.3 -219.15,140.56 -85.66,33.25 -174.34,49.87 -266.01,49.87 -98.75,0 -191.7,-18.36 -278.85,-55.16 -87.16,-36.77 -163.23,-87.14 -228.2,-151.13 -64.99,-63.98 -116.37,-139.29 -154.17,-225.95 -37.77,-86.64 -56.67,-179.34 -56.67,-278.11l3.02 -9.06c-2.04,-2.01 -3.02,-4.01 -3.02,-6.04 0,-98.74 18.9,-191.69 56.67,-278.85 37.8,-87.14 89.18,-163.23 154.17,-228.22 64.97,-64.99 141.04,-116.37 228.2,-154.15 87.15,-37.79 180.1,-56.69 278.85,-56.69 91.67,0 180.35,16.64 266.01,49.89 85.63,33.24 158.68,80.09 219.15,140.56 23.16,23.18 34.76,48.61 34.76,76.32 0,27.72 -10.58,51.14 -31.75,70.26 -15.11,13.11 -29.47,21.17 -43.06,24.19 -13.61,3.03 -26.72,3.03 -39.31,0 -12.61,-3.02 -24.43,-8.05 -35.5,-15.11 -11.11,-7.04 -21.69,-14.59 -31.75,-22.67 -51.38,-45.33 -106.82,-78.6 -166.24,-99.75 -59.47,-21.15 -122.43,-31.21 -188.93,-30.23 -71.56,1.02 -138.05,15.86 -199.51,44.6 -61.46,28.71 -115.12,67.25 -160.95,115.61 -45.86,48.36 -81.88,104.05 -108.06,167.01 -26.22,62.97 -39.29,128.72 -39.29,197.23z"/>
   <path class="fil1" d="M16504.73 10806.48c8.05,63.48 26.95,122.43 56.68,176.82 29.71,54.42 67.24,101.79 112.6,142.08 45.34,40.31 97.22,72.05 155.67,95.22 58.41,23.19 120.38,34.76 185.89,34.76 80.6,0 153.64,-15.36 219.15,-46.09 65.49,-30.73 119.4,-71.8 161.71,-123.18 17.12,-14.11 33.48,-22.41 49.13,-24.94 15.6,-2.5 30.97,-1.26 46.09,3.77 18.14,6.04 32.23,18.65 42.32,37.79 14.09,17.14 20.9,37.78 20.4,61.96 -0.52,24.18 -12.35,46.35 -35.52,66.51 -27.2,30.23 -57.95,57.94 -92.19,83.11 -34.26,25.2 -72.31,47.11 -114.1,65.75 -41.83,18.66 -87.44,33.25 -136.79,43.84 -49.37,10.58 -102.77,15.86 -160.2,15.86 -99.75,0 -193.22,-18.89 -280.36,-56.67 -87.16,-37.79 -163.49,-89.17 -228.98,-154.17 -65.51,-64.99 -117.11,-141.31 -154.91,-228.96 -37.77,-87.66 -56.67,-181.36 -56.67,-281.12 0,-99.75 18.9,-193.2 56.67,-280.36 37.8,-87.14 89.4,-163.23 154.91,-228.22 65.49,-64.97 141.82,-116.37 228.98,-154.15 87.14,-37.79 180.61,-56.67 280.36,-56.67 98.74,0 191.95,18.65 279.61,55.91 87.66,37.3 163.97,88.18 228.96,152.65 64.99,64.5 116.61,140.32 154.92,227.47 38.28,87.16 57.93,180.11 58.93,278.84 0,26.2 -8.56,48.13 -25.68,65.74 -17.14,17.63 -39.29,26.45 -66.51,26.45l-1141.07 0zm1038.3 -160.21l0 0c-7.06,-65.47 -25.45,-126.69 -55.15,-183.62 -29.73,-56.92 -68.02,-106.3 -114.88,-148.13 -46.85,-41.78 -100.49,-74.55 -160.95,-98.23 -60.46,-23.65 -124.96,-35.5 -193.46,-35.5 -68.53,0 -132.76,12.07 -192.7,36.26 -59.95,24.18 -113.11,57.2 -159.44,98.99 -46.36,41.82 -84.15,91.21 -113.36,148.12 -29.24,56.93 -46.86,117.65 -52.9,182.11l1042.84 0z"/>
   <path class="fil1" d="M18522.39 10715.05c-52.4,-21.67 -98.75,-47.85 -139.05,-78.6 -40.3,-30.71 -72.81,-67.25 -97.47,-109.57 -24.71,-42.32 -37.04,-92.19 -37.04,-149.62 0,-61.44 13.61,-116.12 40.81,-163.99 27.2,-47.85 62.72,-87.66 106.56,-119.4 43.82,-31.73 93.93,-55.92 150.37,-72.54 56.42,-16.62 113.35,-24.94 170.78,-24.94 43.32,0 86.38,4.3 129.22,12.85 42.83,8.58 82.87,21.41 120.17,38.53 37.26,17.16 71.02,38.55 101.25,64.23 30.23,25.7 54.41,56.19 72.55,91.45 10.06,20.16 13.59,38.54 10.58,55.16 -3.03,16.62 -10.1,30.49 -21.17,41.57 -12.08,13.1 -26.96,21.66 -44.58,25.7 -17.64,4.03 -34.52,2.01 -50.63,-6.05 -43.34,-49.37 -88.41,-87.66 -135.27,-114.88 -46.85,-27.2 -103.02,-40.8 -168.51,-40.8 -35.28,0 -70.28,3.79 -105.05,11.33 -34.76,7.56 -66,19.65 -93.7,36.28 -27.72,16.62 -50.13,38.05 -67.25,64.23 -17.14,26.22 -25.7,58.45 -25.7,96.72 0,35.3 7.8,65.25 23.43,89.94 15.6,24.7 37.03,46.35 64.23,64.99 27.22,18.65 58.69,34.76 94.46,48.35 35.76,13.61 73.8,26.46 114.11,38.55 64.47,20.17 125.67,41.07 183.64,62.72 57.93,21.69 109.05,48.13 153.39,79.34 44.34,31.25 79.58,68.78 105.8,112.6 26.2,43.84 39.29,96.98 39.29,159.46 0,58.44 -12.83,112.58 -38.53,162.47 -25.7,49.87 -60.72,93.21 -105.05,129.96 -44.35,36.8 -96.22,65.51 -155.66,86.15 -59.46,20.65 -123.44,30.99 -191.95,30.99 -51.38,0 -101.78,-5.05 -151.13,-15.11 -49.39,-10.06 -95.98,-25.44 -139.8,-46.09 -43.83,-20.66 -83.39,-46.6 -118.65,-77.85 -35.28,-31.21 -63.48,-68 -84.63,-110.33 -15.11,-27.19 -19.41,-52.14 -12.85,-74.81 6.54,-22.66 19.14,-39.29 37.79,-49.86 18.62,-10.6 40.27,-13.85 64.98,-9.84 24.68,4.05 47.09,18.66 67.26,43.84 35.26,59.46 80.34,103.03 135.27,130.72 54.9,27.74 122.15,41.57 201.76,41.57 39.3,0 77.31,-5.53 114.11,-16.62 36.77,-11.08 69.52,-26.69 98.23,-46.86 28.72,-20.13 51.63,-44.82 68.78,-74.05 17.11,-29.21 25.69,-61.46 25.69,-96.74 0,-38.27 -9.58,-71.02 -28.72,-98.23 -19.15,-27.2 -45.09,-50.87 -77.84,-71.04 -32.74,-20.14 -70.04,-37.52 -111.83,-52.14 -41.82,-14.59 -85.4,-27.96 -130.74,-40.05 -55.41,-18.14 -109.33,-38.02 -161.71,-59.69z"/>
   <path class="fil1" d="M19757.9 10438.46c37.8,-88.16 89.4,-164.73 154.91,-229.72 65.49,-64.99 142.08,-116.37 229.74,-154.17 87.66,-37.77 180.85,-56.67 279.6,-56.67 99.76,0 193.19,18.9 280.36,56.67 87.13,37.8 163.22,89.18 228.21,154.17 64.99,64.99 116.37,141.56 154.17,229.72 37.77,88.18 56.67,182.13 56.67,281.88 0,98.75 -18.9,191.94 -56.67,279.6 -37.8,87.65 -89.18,163.97 -154.17,228.96 -64.99,65 -141.08,116.38 -228.21,154.17 -87.17,37.78 -180.6,56.67 -280.36,56.67 -98.75,0 -191.94,-18.89 -279.6,-56.67 -87.66,-37.79 -164.25,-89.17 -229.74,-154.17 -65.51,-64.99 -117.11,-141.31 -154.91,-228.96 -37.77,-87.66 -56.67,-180.85 -56.67,-279.6 0,-99.75 18.9,-193.7 56.67,-281.88zm175.32 486.66l0 0c27.7,64.01 65.22,119.92 112.61,167.77 47.33,47.85 103.26,85.91 167.76,114.1 64.45,28.22 133.98,42.33 208.56,42.33 74.55,0 144.08,-14.11 208.57,-42.33 64.47,-28.19 120.65,-66.25 168.52,-114.1 47.83,-47.85 85.38,-103.76 112.6,-167.77 27.2,-63.96 40.81,-132.24 40.81,-204.78 0,-73.54 -13.61,-142.58 -40.81,-207.07 -27.22,-64.46 -64.77,-120.65 -112.6,-168.52 -47.87,-47.83 -104.05,-85.62 -168.52,-113.34 -64.49,-27.7 -134.02,-41.56 -208.57,-41.56 -73.57,0 -142.59,13.86 -207.06,41.56 -64.5,27.72 -120.67,65.51 -168.52,113.34 -47.85,47.87 -85.65,104.06 -113.35,168.52 -27.73,64.49 -41.56,133.53 -41.56,207.07 0,72.54 13.83,140.82 41.56,204.78z"/>
   <path class="fil1" d="M21897.2 10250.31c68.51,-77.59 150.62,-139.06 246.36,-184.4 95.71,-45.34 198.97,-68.01 309.84,-68.01l3.01 0 9.06 0c32.25,0 56.92,8.84 74.07,26.44 17.12,17.66 25.69,40.07 25.69,67.27 0,28.21 -9.58,51.14 -28.72,68.76 -19.15,17.64 -42.84,26.44 -71.04,26.44l-10.57 0 -1.5 0c-75.57,0 -147.12,14.63 -214.63,43.84 -67.51,29.23 -126.45,69.28 -176.82,120.15 -50.4,50.9 -90.45,110.59 -120.15,179.09 -29.73,68.54 -44.6,142.08 -44.6,220.66l0 574.33c0,27.2 -9.06,50.13 -27.19,68.77 -18.14,18.65 -40.31,27.96 -66.51,27.96 -26.2,0 -48.87,-9.31 -68.01,-27.96 -19.15,-18.64 -28.71,-41.57 -28.71,-68.77l0 -1231.75c0,-26.2 9.56,-48.62 28.71,-67.27 19.14,-18.64 41.81,-27.96 68.01,-27.96 27.21,0 49.62,9.32 67.26,27.96 17.61,18.65 26.44,41.07 26.44,67.27l0 157.18z"/>
   <path class="fil1" d="M23109.33 9589.83c22.15,-22.15 48.85,-33.24 80.1,-33.24 32.22,0 59.92,11.09 83.13,33.24 23.15,22.17 34.76,49.89 34.76,83.13 0,30.23 -11.61,56.67 -34.76,79.34 -23.21,22.67 -50.91,34 -83.13,34 -31.25,0 -57.95,-11.33 -80.1,-34 -22.19,-22.67 -33.27,-49.11 -33.27,-79.34 0,-33.24 11.08,-60.96 33.27,-83.13zm176.82 1735.05l0 0c0,27.2 -9.32,50.13 -27.96,68.77 -18.66,18.65 -41.07,27.96 -67.25,27.96 -26.22,0 -48.63,-9.31 -67.26,-27.96 -18.66,-18.64 -27.96,-41.57 -27.96,-68.77l0 -1231.75c0,-26.2 9.56,-48.62 28.71,-67.27 19.14,-18.64 41.81,-27.96 68.01,-27.96 26.2,0 48.37,9.32 66.51,27.96 18.14,18.65 27.2,41.07 27.2,67.27l0 1231.75z"/>
   <path class="fil1" d="M23905.02 10438.46c37.8,-88.16 89.4,-164.73 154.91,-229.72 65.49,-64.99 142.08,-116.37 229.74,-154.17 87.66,-37.77 180.85,-56.67 279.6,-56.67 99.76,0 193.19,18.9 280.36,56.67 87.13,37.8 163.22,89.18 228.21,154.17 64.99,64.99 116.37,141.56 154.17,229.72 37.77,88.18 56.67,182.13 56.67,281.88 0,98.75 -18.9,191.94 -56.67,279.6 -37.8,87.65 -89.18,163.97 -154.17,228.96 -64.99,65 -141.08,116.38 -228.21,154.17 -87.17,37.78 -180.6,56.67 -280.36,56.67 -98.75,0 -191.94,-18.89 -279.6,-56.67 -87.66,-37.79 -164.25,-89.17 -229.74,-154.17 -65.51,-64.99 -117.11,-141.31 -154.91,-228.96 -37.77,-87.66 -56.67,-180.85 -56.67,-279.6 0,-99.75 18.9,-193.7 56.67,-281.88zm175.32 486.66l0 0c27.7,64.01 65.22,119.92 112.61,167.77 47.33,47.85 103.26,85.91 167.76,114.1 64.45,28.22 133.98,42.33 208.56,42.33 74.55,0 144.08,-14.11 208.57,-42.33 64.47,-28.19 120.65,-66.25 168.52,-114.1 47.83,-47.85 85.38,-103.76 112.6,-167.77 27.2,-63.96 40.81,-132.24 40.81,-204.78 0,-73.54 -13.61,-142.58 -40.81,-207.07 -27.22,-64.46 -64.77,-120.65 -112.6,-168.52 -47.87,-47.83 -104.05,-85.62 -168.52,-113.34 -64.49,-27.7 -134.02,-41.56 -208.57,-41.56 -73.57,0 -142.59,13.86 -207.07,41.56 -64.49,27.72 -120.66,65.51 -168.51,113.34 -47.85,47.87 -85.65,104.06 -113.35,168.52 -27.73,64.49 -41.56,133.53 -41.56,207.07 0,72.54 13.83,140.82 41.56,204.78z"/>
   <path class="fil1" d="M26074.54 10715.05c-52.4,-21.67 -98.76,-47.85 -139.05,-78.6 -40.3,-30.71 -72.81,-67.25 -97.48,-109.57 -24.7,-42.32 -37.03,-92.19 -37.03,-149.62 0,-61.44 13.61,-116.12 40.81,-163.99 27.2,-47.85 62.72,-87.66 106.55,-119.4 43.83,-31.73 93.93,-55.92 150.38,-72.54 56.42,-16.62 113.35,-24.94 170.78,-24.94 43.32,0 86.38,4.3 129.22,12.85 42.82,8.58 82.87,21.41 120.17,38.53 37.26,17.16 71.02,38.55 101.25,64.23 30.23,25.7 54.41,56.19 72.55,91.45 10.06,20.16 13.59,38.54 10.58,55.16 -3.03,16.62 -10.1,30.49 -21.17,41.57 -12.08,13.1 -26.96,21.66 -44.58,25.7 -17.64,4.03 -34.52,2.01 -50.63,-6.05 -43.34,-49.37 -88.42,-87.66 -135.27,-114.88 -46.85,-27.2 -103.02,-40.8 -168.52,-40.8 -35.27,0 -70.28,3.79 -105.04,11.33 -34.76,7.56 -66.01,19.65 -93.7,36.28 -27.72,16.62 -50.13,38.05 -67.25,64.23 -17.14,26.22 -25.7,58.45 -25.7,96.72 0,35.3 7.8,65.25 23.42,89.94 15.61,24.7 37.04,46.35 64.24,64.99 27.21,18.65 58.69,34.76 94.46,48.35 35.76,13.61 73.8,26.46 114.1,38.55 64.48,20.17 125.68,41.07 183.65,62.72 57.92,21.69 109.05,48.13 153.39,79.34 44.34,31.25 79.58,68.78 105.8,112.6 26.2,43.84 39.29,96.98 39.29,159.46 0,58.44 -12.83,112.58 -38.54,162.47 -25.7,49.87 -60.72,93.21 -105.04,129.96 -44.35,36.8 -96.22,65.51 -155.66,86.15 -59.47,20.65 -123.44,30.99 -191.95,30.99 -51.38,0 -101.78,-5.05 -151.13,-15.11 -49.39,-10.06 -95.98,-25.44 -139.8,-46.09 -43.83,-20.66 -83.39,-46.6 -118.65,-77.85 -35.28,-31.21 -63.48,-68 -84.63,-110.33 -15.11,-27.19 -19.42,-52.14 -12.85,-74.81 6.54,-22.66 19.13,-39.29 37.79,-49.86 18.62,-10.6 40.27,-13.85 64.97,-9.84 24.69,4.05 47.1,18.66 67.27,43.84 35.26,59.46 80.34,103.03 135.27,130.72 54.9,27.74 122.15,41.57 201.76,41.57 39.29,0 77.31,-5.53 114.11,-16.62 36.77,-11.08 69.52,-26.69 98.23,-46.86 28.72,-20.13 51.63,-44.82 68.78,-74.05 17.11,-29.21 25.69,-61.46 25.69,-96.74 0,-38.27 -9.58,-71.02 -28.72,-98.23 -19.15,-27.2 -45.09,-50.87 -77.84,-71.04 -32.75,-20.14 -70.04,-37.52 -111.83,-52.14 -41.82,-14.59 -85.4,-27.96 -130.74,-40.05 -55.41,-18.14 -109.33,-38.02 -161.71,-59.69z"/>
  </g>
  <path class="fil0 str0" d="M26921.27 8173.79c110.31,214.84 114.41,230.26 -105.41,315.21 -272.81,105.42 -549.12,214.98 -834.06,273.09 -583.83,119.06 -938.57,-160.01 -961.79,-759.15 -19.3,-497.83 3.11,-997.26 6.95,-1495.99 0.35,-45.38 0.04,-90.76 -28.88,-147.72 -40.18,99.56 -78.67,199.83 -120.8,298.55 -311.08,728.88 -710.13,1392.31 -1387.39,1845.48 -666.75,446.13 -1574.71,423.4 -2100.93,-58.75 -372.46,-341.27 -498.06,-798.52 -571.29,-1276.65 -95.01,-620.43 -72.73,-1242.8 -14.66,-1863.44 80.94,-865.1 180.01,-1728.49 265.35,-2593.2 49.61,-502.6 -74.62,-621.93 -584.01,-582.88 -127.35,9.76 -254.53,21.75 -393.99,33.77 -14.58,-92.25 -27.04,-171.05 -42.57,-269.31 495.48,-115.19 975.02,-261.08 1480.9,-213.29 268.51,25.37 399.51,240.26 365.5,584.24 -52.58,531.81 -118.69,1062.27 -174.72,1593.75 -99.21,941.15 -189.79,1883.95 -126.07,2831.06 18.67,277.55 74.91,561.64 168.62,823.14 185.33,517.18 642.63,746.01 1183.75,632.1 548.92,-115.55 923.96,-471.15 1225,-914.27 486.95,-716.75 736.58,-1523.08 805.13,-2377.76 72.3,-901.44 104.54,-1806.18 148.94,-2709.74 21.79,-443.47 343.44,-639.98 747.19,-435.97 49.26,24.89 84.66,132.85 80.38,199.35 -39.22,609.52 -111.46,1217.68 -130.27,1827.59 -38.02,1232.95 -52.22,2466.71 -66.41,3700.25 -1.92,167.3 38.08,339.46 84.71,501.89 68.99,240.34 208.07,340.98 457.17,326.6 203.24,-11.72 404.63,-55.76 623.66,-87.95z"/>
  <g id="_1281902832">
   <path class="fil2 str1" d="M27061.74 10120.73c219.78,0 397.94,-185.74 397.94,-414.87 0,-229.13 -178.16,-414.87 -397.94,-414.87 -219.78,0 -397.94,185.74 -397.94,414.87 0,229.13 178.16,414.87 397.94,414.87z"/>
   <path class="fil1 str2" d="M26904.86 9936.81l0 -423.49 187.69 0c37.75,0 66.44,3.84 86.06,11.43 19.62,7.59 35.29,21 47.02,40.22 11.73,19.23 17.55,40.52 17.55,63.78 0,30.07 -9.76,55.4 -29.18,76.01 -19.42,20.6 -49.39,33.61 -90,39.23 14.88,7.1 26.12,14.2 33.81,21.1 16.36,14.98 31.84,33.81 46.33,56.38l73.24 115.34 -69.99 0 -55.99 -88.13c-16.26,-25.53 -29.77,-44.95 -40.32,-58.46 -10.64,-13.5 -20.11,-22.87 -28.49,-28.29 -8.28,-5.32 -16.85,-9.07 -25.53,-11.24 -6.31,-1.28 -16.66,-1.97 -31.15,-1.97l-64.86 0 0 188.09 -56.19 0zm56.19 -236.59l120.26 0c25.63,0 45.54,-2.66 59.94,-7.98 14.39,-5.23 25.33,-13.71 32.72,-25.44 7.5,-11.63 11.24,-24.25 11.24,-37.95 0,-20.01 -7.19,-36.57 -21.68,-49.49 -14.5,-12.91 -37.37,-19.32 -68.61,-19.32l-133.87 0 0 140.18z"/>
  </g>
 </g>
</svg>
